G04 #@! TF.FileFunction,Legend,Bot*
%FSLAX46Y46*%
G04 Gerber Fmt 4.6, Leading zero omitted, Abs format (unit mm)*
G04 Created by KiCad (PCBNEW 4.0.7-e2-6376~58~ubuntu16.04.1) date Wed Nov  1 22:14:58 2017*
%MOMM*%
%LPD*%
G01*
G04 APERTURE LIST*
%ADD10C,0.100000*%
%ADD11C,0.120000*%
%ADD12C,0.150000*%
G04 APERTURE END LIST*
D10*
D11*
X122400000Y-63080000D02*
X121400000Y-63080000D01*
X121400000Y-61380000D02*
X122400000Y-61380000D01*
X104666000Y-99182000D02*
X104666000Y-98252000D01*
X104666000Y-96022000D02*
X104666000Y-96952000D01*
X104666000Y-96022000D02*
X106826000Y-96022000D01*
X104666000Y-99182000D02*
X106126000Y-99182000D01*
X120532000Y-96602000D02*
X120532000Y-97802000D01*
X122292000Y-97802000D02*
X122292000Y-96602000D01*
X110372000Y-97524000D02*
X110372000Y-98724000D01*
X112132000Y-98724000D02*
X112132000Y-97524000D01*
X122490608Y-104753665D02*
G75*
G02X122647516Y-107986000I-1078608J-1672335D01*
G01*
X120333392Y-104753665D02*
G75*
G03X120176484Y-107986000I1078608J-1672335D01*
G01*
X122491837Y-105384870D02*
G75*
G02X122492000Y-107466961I-1079837J-1041130D01*
G01*
X120332163Y-105384870D02*
G75*
G03X120332000Y-107466961I1079837J-1041130D01*
G01*
X122648000Y-107986000D02*
X122492000Y-107986000D01*
X120332000Y-107986000D02*
X120176000Y-107986000D01*
X120562000Y-92194000D02*
X120562000Y-91194000D01*
X122262000Y-91194000D02*
X122262000Y-92194000D01*
D12*
X122066666Y-64337143D02*
X122114285Y-64384762D01*
X122257142Y-64432381D01*
X122352380Y-64432381D01*
X122495238Y-64384762D01*
X122590476Y-64289524D01*
X122638095Y-64194286D01*
X122685714Y-64003810D01*
X122685714Y-63860952D01*
X122638095Y-63670476D01*
X122590476Y-63575238D01*
X122495238Y-63480000D01*
X122352380Y-63432381D01*
X122257142Y-63432381D01*
X122114285Y-63480000D01*
X122066666Y-63527619D01*
X121114285Y-64432381D02*
X121685714Y-64432381D01*
X121400000Y-64432381D02*
X121400000Y-63432381D01*
X121495238Y-63575238D01*
X121590476Y-63670476D01*
X121685714Y-63718095D01*
X105521238Y-95649619D02*
X105616476Y-95602000D01*
X105711714Y-95506762D01*
X105854571Y-95363905D01*
X105949810Y-95316286D01*
X106045048Y-95316286D01*
X105997429Y-95554381D02*
X106092667Y-95506762D01*
X106187905Y-95411524D01*
X106235524Y-95221048D01*
X106235524Y-94887714D01*
X106187905Y-94697238D01*
X106092667Y-94602000D01*
X105997429Y-94554381D01*
X105806952Y-94554381D01*
X105711714Y-94602000D01*
X105616476Y-94697238D01*
X105568857Y-94887714D01*
X105568857Y-95221048D01*
X105616476Y-95411524D01*
X105711714Y-95506762D01*
X105806952Y-95554381D01*
X105997429Y-95554381D01*
X104616476Y-95554381D02*
X105187905Y-95554381D01*
X104902191Y-95554381D02*
X104902191Y-94554381D01*
X104997429Y-94697238D01*
X105092667Y-94792476D01*
X105187905Y-94840095D01*
X123564381Y-97035334D02*
X123088190Y-96702000D01*
X123564381Y-96463905D02*
X122564381Y-96463905D01*
X122564381Y-96844858D01*
X122612000Y-96940096D01*
X122659619Y-96987715D01*
X122754857Y-97035334D01*
X122897714Y-97035334D01*
X122992952Y-96987715D01*
X123040571Y-96940096D01*
X123088190Y-96844858D01*
X123088190Y-96463905D01*
X123564381Y-97987715D02*
X123564381Y-97416286D01*
X123564381Y-97702000D02*
X122564381Y-97702000D01*
X122707238Y-97606762D01*
X122802476Y-97511524D01*
X122850095Y-97416286D01*
X113404381Y-97957334D02*
X112928190Y-97624000D01*
X113404381Y-97385905D02*
X112404381Y-97385905D01*
X112404381Y-97766858D01*
X112452000Y-97862096D01*
X112499619Y-97909715D01*
X112594857Y-97957334D01*
X112737714Y-97957334D01*
X112832952Y-97909715D01*
X112880571Y-97862096D01*
X112928190Y-97766858D01*
X112928190Y-97385905D01*
X112499619Y-98338286D02*
X112452000Y-98385905D01*
X112404381Y-98481143D01*
X112404381Y-98719239D01*
X112452000Y-98814477D01*
X112499619Y-98862096D01*
X112594857Y-98909715D01*
X112690095Y-98909715D01*
X112832952Y-98862096D01*
X113404381Y-98290667D01*
X113404381Y-98909715D01*
X124824381Y-105687905D02*
X123824381Y-105687905D01*
X123824381Y-105926000D01*
X123872000Y-106068858D01*
X123967238Y-106164096D01*
X124062476Y-106211715D01*
X124252952Y-106259334D01*
X124395810Y-106259334D01*
X124586286Y-106211715D01*
X124681524Y-106164096D01*
X124776762Y-106068858D01*
X124824381Y-105926000D01*
X124824381Y-105687905D01*
X123824381Y-106592667D02*
X123824381Y-107211715D01*
X124205333Y-106878381D01*
X124205333Y-107021239D01*
X124252952Y-107116477D01*
X124300571Y-107164096D01*
X124395810Y-107211715D01*
X124633905Y-107211715D01*
X124729143Y-107164096D01*
X124776762Y-107116477D01*
X124824381Y-107021239D01*
X124824381Y-106735524D01*
X124776762Y-106640286D01*
X124729143Y-106592667D01*
X120019143Y-91527334D02*
X120066762Y-91479715D01*
X120114381Y-91336858D01*
X120114381Y-91241620D01*
X120066762Y-91098762D01*
X119971524Y-91003524D01*
X119876286Y-90955905D01*
X119685810Y-90908286D01*
X119542952Y-90908286D01*
X119352476Y-90955905D01*
X119257238Y-91003524D01*
X119162000Y-91098762D01*
X119114381Y-91241620D01*
X119114381Y-91336858D01*
X119162000Y-91479715D01*
X119209619Y-91527334D01*
X119447714Y-92384477D02*
X120114381Y-92384477D01*
X119066762Y-92146381D02*
X119781048Y-91908286D01*
X119781048Y-92527334D01*
M02*
