M48
;DRILL file {KiCad 4.0.7-e2-6376~58~ubuntu16.04.1} date Wed Nov  1 22:14:54 2017
;FORMAT={-:-/ absolute / metric / decimal}
FMAT,2
METRIC,TZ
T1C0.400
T2C0.750
T3C0.800
T4C0.900
T5C1.000
T6C1.097
T7C3.000
%
G90
G05
M71
T1
X103.124Y-75.946
X103.124Y-77.47
X103.124Y-78.994
X103.124Y-80.518
X103.124Y-82.042
X105.156Y-75.946
X105.206Y-82.042
X113.792Y-78.994
X120.396Y-79.248
T2
X113.376Y-56.928
X113.376Y-58.928
X113.376Y-63.956
X113.376Y-65.956
T3
X117.348Y-90.424
X117.348Y-92.964
X117.348Y-95.504
X117.348Y-98.044
X124.968Y-90.424
X124.968Y-92.964
X124.968Y-95.504
X124.968Y-98.044
T4
X121.412Y-105.156
X121.412Y-107.696
T5
X130.556Y-90.424
X130.556Y-92.964
X130.556Y-95.504
X130.556Y-98.044
T6
X103.886Y-61.722
X106.426Y-61.722
T7
X118.9Y-58.37
X121.9Y-53.67
X124.9Y-58.37
T0
M30
