G04 #@! TF.FileFunction,Legend,Top*
%FSLAX46Y46*%
G04 Gerber Fmt 4.6, Leading zero omitted, Abs format (unit mm)*
G04 Created by KiCad (PCBNEW 4.0.7-e2-6376~58~ubuntu16.04.1) date Wed Nov  1 22:14:58 2017*
%MOMM*%
%LPD*%
G01*
G04 APERTURE LIST*
%ADD10C,0.100000*%
%ADD11C,0.200000*%
%ADD12C,0.120000*%
%ADD13C,0.150000*%
%ADD14C,0.010000*%
G04 APERTURE END LIST*
D10*
D11*
X103300262Y-108044571D02*
X102966928Y-108044571D01*
X102901451Y-108568381D02*
X103026451Y-107568381D01*
X103502642Y-107568381D01*
X104270500Y-107901714D02*
X104187166Y-108568381D01*
X103841928Y-107901714D02*
X103776452Y-108425524D01*
X103812166Y-108520762D01*
X103901451Y-108568381D01*
X104044309Y-108568381D01*
X104145500Y-108520762D01*
X104199071Y-108473143D01*
X104663356Y-108568381D02*
X104746690Y-107901714D01*
X104734785Y-107996952D02*
X104788356Y-107949333D01*
X104889547Y-107901714D01*
X105032405Y-107901714D01*
X105121690Y-107949333D01*
X105157405Y-108044571D01*
X105091928Y-108568381D01*
X105157405Y-108044571D02*
X105216928Y-107949333D01*
X105318119Y-107901714D01*
X105460976Y-107901714D01*
X105550261Y-107949333D01*
X105585976Y-108044571D01*
X105520499Y-108568381D01*
X106383595Y-108520762D02*
X106282404Y-108568381D01*
X106091927Y-108568381D01*
X106002642Y-108520762D01*
X105966928Y-108425524D01*
X106014547Y-108044571D01*
X106074070Y-107949333D01*
X106175261Y-107901714D01*
X106365738Y-107901714D01*
X106455023Y-107949333D01*
X106490738Y-108044571D01*
X106478833Y-108139810D01*
X105990737Y-108235048D01*
X107681214Y-108044571D02*
X108014548Y-108044571D01*
X108091928Y-108568381D02*
X107615737Y-108568381D01*
X107740737Y-107568381D01*
X108216928Y-107568381D01*
X108425261Y-108568381D02*
X109032405Y-107901714D01*
X108508595Y-107901714D02*
X108949071Y-108568381D01*
X109270500Y-107901714D02*
X109651452Y-107901714D01*
X109455023Y-107568381D02*
X109347881Y-108425524D01*
X109383595Y-108520762D01*
X109472880Y-108568381D01*
X109568118Y-108568381D01*
X109901452Y-108568381D02*
X109984786Y-107901714D01*
X109960976Y-108092190D02*
X110020500Y-107996952D01*
X110074071Y-107949333D01*
X110175262Y-107901714D01*
X110270501Y-107901714D01*
X110949072Y-108568381D02*
X111014549Y-108044571D01*
X110978834Y-107949333D01*
X110889549Y-107901714D01*
X110699072Y-107901714D01*
X110597881Y-107949333D01*
X110955025Y-108520762D02*
X110853834Y-108568381D01*
X110615738Y-108568381D01*
X110526453Y-108520762D01*
X110490739Y-108425524D01*
X110502643Y-108330286D01*
X110562167Y-108235048D01*
X110663357Y-108187429D01*
X110901453Y-108187429D01*
X111002644Y-108139810D01*
X111859787Y-108520762D02*
X111758596Y-108568381D01*
X111568119Y-108568381D01*
X111478834Y-108520762D01*
X111437167Y-108473143D01*
X111401453Y-108377905D01*
X111437167Y-108092190D01*
X111496691Y-107996952D01*
X111550262Y-107949333D01*
X111651453Y-107901714D01*
X111841930Y-107901714D01*
X111931215Y-107949333D01*
X112222882Y-107901714D02*
X112603834Y-107901714D01*
X112407405Y-107568381D02*
X112300263Y-108425524D01*
X112335977Y-108520762D01*
X112425262Y-108568381D01*
X112520500Y-108568381D01*
X112996691Y-108568381D02*
X112907406Y-108520762D01*
X112865739Y-108473143D01*
X112830025Y-108377905D01*
X112865739Y-108092190D01*
X112925263Y-107996952D01*
X112978834Y-107949333D01*
X113080025Y-107901714D01*
X113222883Y-107901714D01*
X113312168Y-107949333D01*
X113353835Y-107996952D01*
X113389549Y-108092190D01*
X113353835Y-108377905D01*
X113294311Y-108473143D01*
X113240740Y-108520762D01*
X113139549Y-108568381D01*
X112996691Y-108568381D01*
X113758596Y-108568381D02*
X113841930Y-107901714D01*
X113818120Y-108092190D02*
X113877644Y-107996952D01*
X113931215Y-107949333D01*
X114032406Y-107901714D01*
X114127645Y-107901714D01*
X102074072Y-109268381D02*
X101984787Y-109982667D01*
X101919310Y-110125524D01*
X101812167Y-110220762D01*
X101663357Y-110268381D01*
X101568119Y-110268381D01*
X102437167Y-110173143D02*
X102478834Y-110220762D01*
X102425262Y-110268381D01*
X102383596Y-110220762D01*
X102437167Y-110173143D01*
X102425262Y-110268381D01*
X102966929Y-109744571D02*
X103300263Y-109744571D01*
X103377643Y-110268381D02*
X102901452Y-110268381D01*
X103026452Y-109268381D01*
X103502643Y-109268381D01*
X103949071Y-110268381D02*
X103859786Y-110220762D01*
X103824072Y-110125524D01*
X103931214Y-109268381D01*
X104330024Y-110268381D02*
X104413358Y-109601714D01*
X104556215Y-109220762D02*
X104395501Y-109363619D01*
X104949071Y-110268381D02*
X104859786Y-110220762D01*
X104818119Y-110173143D01*
X104782405Y-110077905D01*
X104818119Y-109792190D01*
X104877643Y-109696952D01*
X104931214Y-109649333D01*
X105032405Y-109601714D01*
X105175263Y-109601714D01*
X105264548Y-109649333D01*
X105306215Y-109696952D01*
X105341929Y-109792190D01*
X105306215Y-110077905D01*
X105246691Y-110173143D01*
X105193120Y-110220762D01*
X105091929Y-110268381D01*
X104949071Y-110268381D01*
X106538358Y-109363619D02*
X106591929Y-109316000D01*
X106693119Y-109268381D01*
X106931215Y-109268381D01*
X107020501Y-109316000D01*
X107062168Y-109363619D01*
X107097882Y-109458857D01*
X107085977Y-109554095D01*
X107020501Y-109696952D01*
X106377643Y-110268381D01*
X106996691Y-110268381D01*
X107472881Y-110268381D02*
X107663357Y-110268381D01*
X107764549Y-110220762D01*
X107818120Y-110173143D01*
X107931215Y-110030286D01*
X108002644Y-109839810D01*
X108050263Y-109458857D01*
X108014549Y-109363619D01*
X107972882Y-109316000D01*
X107883596Y-109268381D01*
X107693119Y-109268381D01*
X107591929Y-109316000D01*
X107538358Y-109363619D01*
X107478834Y-109458857D01*
X107449072Y-109696952D01*
X107484786Y-109792190D01*
X107526453Y-109839810D01*
X107615738Y-109887429D01*
X107806215Y-109887429D01*
X107907406Y-109839810D01*
X107960977Y-109792190D01*
X108020501Y-109696952D01*
X108425262Y-109887429D02*
X109187167Y-109887429D01*
X109645500Y-109268381D02*
X110187167Y-110268381D01*
X110312167Y-109268381D02*
X109520500Y-110268381D01*
X110615738Y-109887429D02*
X111377643Y-109887429D01*
X111871691Y-109363619D02*
X111925262Y-109316000D01*
X112026452Y-109268381D01*
X112264548Y-109268381D01*
X112353834Y-109316000D01*
X112395501Y-109363619D01*
X112431215Y-109458857D01*
X112419310Y-109554095D01*
X112353834Y-109696952D01*
X111710976Y-110268381D01*
X112330024Y-110268381D01*
X113074071Y-109268381D02*
X113169310Y-109268381D01*
X113258596Y-109316000D01*
X113300263Y-109363619D01*
X113335977Y-109458857D01*
X113359786Y-109649333D01*
X113330024Y-109887429D01*
X113258596Y-110077905D01*
X113199072Y-110173143D01*
X113145501Y-110220762D01*
X113044310Y-110268381D01*
X112949071Y-110268381D01*
X112859786Y-110220762D01*
X112818119Y-110173143D01*
X112782405Y-110077905D01*
X112758595Y-109887429D01*
X112788357Y-109649333D01*
X112859786Y-109458857D01*
X112919310Y-109363619D01*
X112972881Y-109316000D01*
X113074071Y-109268381D01*
X114234786Y-110268381D02*
X113663357Y-110268381D01*
X113949071Y-110268381D02*
X114074071Y-109268381D01*
X113960976Y-109411238D01*
X113853834Y-109506476D01*
X113752643Y-109554095D01*
X114693119Y-109268381D02*
X115359786Y-109268381D01*
X114806214Y-110268381D01*
D12*
X105656000Y-52998000D02*
X104656000Y-52998000D01*
X104656000Y-54698000D02*
X105656000Y-54698000D01*
X104844000Y-82770000D02*
X110344000Y-82770000D01*
X104844000Y-84870000D02*
X110344000Y-84870000D01*
X104844000Y-82770000D02*
X104844000Y-84870000D01*
X110408000Y-50166000D02*
X110408000Y-53466000D01*
X110408000Y-53466000D02*
X117308000Y-53466000D01*
X110408000Y-50166000D02*
X117308000Y-50166000D01*
X109516000Y-68706000D02*
X109516000Y-65406000D01*
X109516000Y-65406000D02*
X102616000Y-65406000D01*
X109516000Y-68706000D02*
X102616000Y-68706000D01*
X129226000Y-99374000D02*
X131886000Y-99374000D01*
X129226000Y-91694000D02*
X129226000Y-99374000D01*
X131886000Y-91694000D02*
X131886000Y-99374000D01*
X129226000Y-91694000D02*
X131886000Y-91694000D01*
X129226000Y-90424000D02*
X129226000Y-89094000D01*
X129226000Y-89094000D02*
X130556000Y-89094000D01*
X115176000Y-54878000D02*
X110476000Y-54878000D01*
X110476000Y-54878000D02*
X110476000Y-60978000D01*
X110476000Y-60978000D02*
X115176000Y-60978000D01*
X115176000Y-60978000D02*
X115176000Y-54878000D01*
X115176000Y-57428000D02*
X114576000Y-57428000D01*
X114576000Y-57428000D02*
X114576000Y-55478000D01*
X114576000Y-55478000D02*
X111076000Y-55478000D01*
X111076000Y-55478000D02*
X111076000Y-60378000D01*
X111076000Y-60378000D02*
X114576000Y-60378000D01*
X114576000Y-60378000D02*
X114576000Y-58428000D01*
X114576000Y-58428000D02*
X115176000Y-58428000D01*
X113876000Y-54878000D02*
X113876000Y-55478000D01*
X112576000Y-54878000D02*
X112576000Y-55478000D01*
X113876000Y-60978000D02*
X113876000Y-60378000D01*
X112576000Y-60978000D02*
X112576000Y-60378000D01*
X115176000Y-56628000D02*
X115376000Y-56628000D01*
X115376000Y-56628000D02*
X115376000Y-56328000D01*
X115376000Y-56328000D02*
X115176000Y-56328000D01*
X115276000Y-56628000D02*
X115276000Y-56328000D01*
X111076000Y-57828000D02*
X111576000Y-57828000D01*
X111576000Y-57828000D02*
X111576000Y-58028000D01*
X111576000Y-58028000D02*
X111076000Y-58028000D01*
X111076000Y-57928000D02*
X111576000Y-57928000D01*
X115476000Y-55828000D02*
X115476000Y-54578000D01*
X115476000Y-54578000D02*
X114226000Y-54578000D01*
X127054000Y-80448000D02*
X127054000Y-81648000D01*
X127054000Y-81648000D02*
X124354000Y-81648000D01*
X123054000Y-76848000D02*
X127054000Y-76848000D01*
X127054000Y-76848000D02*
X127054000Y-78048000D01*
X106446000Y-75570000D02*
X106446000Y-76830000D01*
X106446000Y-82390000D02*
X106446000Y-81130000D01*
X110206000Y-75570000D02*
X106446000Y-75570000D01*
X112456000Y-82390000D02*
X106446000Y-82390000D01*
X115176000Y-61906000D02*
X110476000Y-61906000D01*
X110476000Y-61906000D02*
X110476000Y-68006000D01*
X110476000Y-68006000D02*
X115176000Y-68006000D01*
X115176000Y-68006000D02*
X115176000Y-61906000D01*
X115176000Y-64456000D02*
X114576000Y-64456000D01*
X114576000Y-64456000D02*
X114576000Y-62506000D01*
X114576000Y-62506000D02*
X111076000Y-62506000D01*
X111076000Y-62506000D02*
X111076000Y-67406000D01*
X111076000Y-67406000D02*
X114576000Y-67406000D01*
X114576000Y-67406000D02*
X114576000Y-65456000D01*
X114576000Y-65456000D02*
X115176000Y-65456000D01*
X113876000Y-61906000D02*
X113876000Y-62506000D01*
X112576000Y-61906000D02*
X112576000Y-62506000D01*
X113876000Y-68006000D02*
X113876000Y-67406000D01*
X112576000Y-68006000D02*
X112576000Y-67406000D01*
X115176000Y-63656000D02*
X115376000Y-63656000D01*
X115376000Y-63656000D02*
X115376000Y-63356000D01*
X115376000Y-63356000D02*
X115176000Y-63356000D01*
X115276000Y-63656000D02*
X115276000Y-63356000D01*
X111076000Y-64856000D02*
X111576000Y-64856000D01*
X111576000Y-64856000D02*
X111576000Y-65056000D01*
X111576000Y-65056000D02*
X111076000Y-65056000D01*
X111076000Y-64956000D02*
X111576000Y-64956000D01*
X115476000Y-62856000D02*
X115476000Y-61606000D01*
X115476000Y-61606000D02*
X114226000Y-61606000D01*
X122158000Y-89094000D02*
G75*
G02X120158000Y-89094000I-1000000J0D01*
G01*
X120158000Y-89094000D02*
X118508000Y-89094000D01*
X118508000Y-89094000D02*
X118508000Y-99374000D01*
X118508000Y-99374000D02*
X123808000Y-99374000D01*
X123808000Y-99374000D02*
X123808000Y-89094000D01*
X123808000Y-89094000D02*
X122158000Y-89094000D01*
D13*
X102356920Y-59121040D02*
X107955080Y-59121040D01*
X107756960Y-58623200D02*
X107756960Y-59121040D01*
X102555040Y-59121040D02*
X102555040Y-58623200D01*
X105156000Y-58623200D02*
X105156000Y-59121040D01*
X107955080Y-64422020D02*
X102356920Y-64422020D01*
X107955080Y-58623200D02*
X102356920Y-58623200D01*
X102356920Y-58623200D02*
X102356920Y-64820800D01*
X102356920Y-64820800D02*
X107955080Y-64820800D01*
X107955080Y-64820800D02*
X107955080Y-58623200D01*
D12*
X123900000Y-53770000D02*
X132700000Y-53770000D01*
X132700000Y-53770000D02*
X132700000Y-62970000D01*
X118000000Y-56470000D02*
X118000000Y-53770000D01*
X118000000Y-53770000D02*
X119900000Y-53770000D01*
X132700000Y-62970000D02*
X118000000Y-62970000D01*
X118000000Y-62970000D02*
X118000000Y-60370000D01*
D14*
G36*
X107974394Y-102873684D02*
X107997347Y-102886307D01*
X108028215Y-102910227D01*
X108070002Y-102947800D01*
X108125716Y-103001382D01*
X108132925Y-103008453D01*
X108273850Y-103146907D01*
X108418910Y-103008453D01*
X108479907Y-102951239D01*
X108526572Y-102910718D01*
X108562180Y-102885276D01*
X108590002Y-102873296D01*
X108613313Y-102873164D01*
X108635385Y-102883263D01*
X108650268Y-102894264D01*
X108680250Y-102918529D01*
X108683924Y-103332298D01*
X108687598Y-103746066D01*
X108715674Y-103752033D01*
X108743257Y-103757567D01*
X108785290Y-103765652D01*
X108819950Y-103772164D01*
X108893803Y-103787543D01*
X108984114Y-103808877D01*
X109083227Y-103834132D01*
X109183485Y-103861277D01*
X109277236Y-103888280D01*
X109356823Y-103913109D01*
X109378750Y-103920505D01*
X109482000Y-103957190D01*
X109562766Y-103988167D01*
X109623077Y-104014380D01*
X109664962Y-104036769D01*
X109690451Y-104056275D01*
X109699986Y-104069485D01*
X109706013Y-104102840D01*
X109704652Y-104156973D01*
X109696631Y-104228595D01*
X109682677Y-104314418D01*
X109663520Y-104411152D01*
X109639887Y-104515506D01*
X109612507Y-104624193D01*
X109582108Y-104733922D01*
X109549417Y-104841404D01*
X109515163Y-104943349D01*
X109493532Y-105002144D01*
X109371192Y-105288930D01*
X109225056Y-105572748D01*
X109056721Y-105851317D01*
X108867781Y-106122360D01*
X108659832Y-106383595D01*
X108434468Y-106632744D01*
X108193286Y-106867528D01*
X108178600Y-106880879D01*
X108108745Y-106943040D01*
X108054088Y-106988921D01*
X108012049Y-107020388D01*
X107980049Y-107039305D01*
X107955509Y-107047534D01*
X107946996Y-107048252D01*
X107927773Y-107040463D01*
X107895382Y-107019630D01*
X107855607Y-106989623D01*
X107839046Y-106976019D01*
X107684827Y-106840926D01*
X107535030Y-106699518D01*
X107397872Y-106559624D01*
X107368165Y-106527600D01*
X107142642Y-106266111D01*
X106939954Y-105998768D01*
X106760496Y-105726298D01*
X106604660Y-105449427D01*
X106472842Y-105168883D01*
X106365435Y-104885391D01*
X106282833Y-104599679D01*
X106254373Y-104473089D01*
X106236880Y-104382254D01*
X106222351Y-104295791D01*
X106211300Y-104217776D01*
X106204875Y-104158157D01*
X106373567Y-104158157D01*
X106381757Y-104222103D01*
X106423187Y-104460624D01*
X106486885Y-104706174D01*
X106571861Y-104955577D01*
X106677124Y-105205657D01*
X106710719Y-105276650D01*
X106815364Y-105480578D01*
X106926386Y-105672660D01*
X107047208Y-105857937D01*
X107181256Y-106041451D01*
X107331954Y-106228242D01*
X107449024Y-106363465D01*
X107493562Y-106412296D01*
X107545381Y-106466955D01*
X107601497Y-106524527D01*
X107658928Y-106582100D01*
X107714691Y-106636760D01*
X107765802Y-106685595D01*
X107809279Y-106725690D01*
X107842139Y-106754133D01*
X107861399Y-106768010D01*
X107864164Y-106768900D01*
X107866347Y-106756666D01*
X107868356Y-106721828D01*
X107870135Y-106667184D01*
X107871626Y-106595528D01*
X107872772Y-106509657D01*
X107873515Y-106412367D01*
X107873798Y-106306454D01*
X107873800Y-106299326D01*
X107873800Y-105831524D01*
X108038900Y-105831524D01*
X108038900Y-106300212D01*
X108039116Y-106406485D01*
X108039733Y-106504315D01*
X108040701Y-106590903D01*
X108041969Y-106663449D01*
X108043490Y-106719157D01*
X108045212Y-106755225D01*
X108047086Y-106768856D01*
X108047200Y-106768900D01*
X108058613Y-106760439D01*
X108084794Y-106737062D01*
X108122513Y-106701772D01*
X108168540Y-106657573D01*
X108200838Y-106626025D01*
X108440790Y-106375105D01*
X108659066Y-106115684D01*
X108855177Y-105848630D01*
X109028634Y-105574810D01*
X109178947Y-105295093D01*
X109305627Y-105010346D01*
X109408185Y-104721438D01*
X109486132Y-104429237D01*
X109512708Y-104298750D01*
X109523030Y-104240892D01*
X109528448Y-104202839D01*
X109529051Y-104179493D01*
X109524925Y-104165753D01*
X109516157Y-104156521D01*
X109515161Y-104155751D01*
X109489303Y-104142110D01*
X109442725Y-104123611D01*
X109379381Y-104101412D01*
X109303229Y-104076675D01*
X109218225Y-104050557D01*
X109128323Y-104024219D01*
X109037481Y-103998819D01*
X108949654Y-103975518D01*
X108868798Y-103955474D01*
X108798870Y-103939848D01*
X108744606Y-103929914D01*
X108686600Y-103921215D01*
X108686411Y-104090932D01*
X108679666Y-104355511D01*
X108660124Y-104601324D01*
X108627917Y-104827775D01*
X108583175Y-105034269D01*
X108526030Y-105220208D01*
X108456613Y-105384997D01*
X108375054Y-105528038D01*
X108368808Y-105537348D01*
X108315823Y-105606559D01*
X108252857Y-105674896D01*
X108186567Y-105735868D01*
X108123611Y-105782983D01*
X108105830Y-105793751D01*
X108038900Y-105831524D01*
X107873800Y-105831524D01*
X107873800Y-105829752D01*
X107832525Y-105808878D01*
X107734043Y-105745685D01*
X107641115Y-105659301D01*
X107555111Y-105551587D01*
X107477403Y-105424407D01*
X107409361Y-105279622D01*
X107374268Y-105186583D01*
X107332901Y-105054389D01*
X107299334Y-104918107D01*
X107272955Y-104773658D01*
X107253152Y-104616966D01*
X107239314Y-104443956D01*
X107230830Y-104250549D01*
X107230136Y-104225511D01*
X107222239Y-103923673D01*
X107176544Y-103931519D01*
X106968836Y-103974062D01*
X106752023Y-104031324D01*
X106535642Y-104100769D01*
X106523608Y-104105011D01*
X106373567Y-104158157D01*
X106204875Y-104158157D01*
X106204242Y-104152289D01*
X106201690Y-104103408D01*
X106204158Y-104075212D01*
X106204191Y-104075109D01*
X106219427Y-104055713D01*
X106249952Y-104032784D01*
X106272927Y-104019690D01*
X106336611Y-103991144D01*
X106420398Y-103959201D01*
X106519457Y-103925320D01*
X106593222Y-103902171D01*
X107401040Y-103902171D01*
X107407305Y-104246510D01*
X107409872Y-104364449D01*
X107413042Y-104461406D01*
X107417107Y-104541802D01*
X107422361Y-104610052D01*
X107429096Y-104670576D01*
X107437605Y-104727790D01*
X107440246Y-104743250D01*
X107479156Y-104933619D01*
X107525581Y-105101443D01*
X107580282Y-105248664D01*
X107644025Y-105377224D01*
X107717571Y-105489064D01*
X107748918Y-105528381D01*
X107783495Y-105564229D01*
X107826324Y-105601196D01*
X107871384Y-105634894D01*
X107912655Y-105660937D01*
X107944117Y-105674936D01*
X107951727Y-105676179D01*
X107972035Y-105669706D01*
X108005979Y-105652179D01*
X108046501Y-105627275D01*
X108049737Y-105625126D01*
X108139588Y-105550499D01*
X108220595Y-105453208D01*
X108292363Y-105334543D01*
X108354498Y-105195794D01*
X108406604Y-105038251D01*
X108448286Y-104863203D01*
X108479149Y-104671941D01*
X108498799Y-104465753D01*
X108506840Y-104245930D01*
X108506424Y-104133650D01*
X108502450Y-103892350D01*
X108432600Y-103883606D01*
X108356724Y-103876218D01*
X108265024Y-103870689D01*
X108161715Y-103866971D01*
X108051011Y-103865019D01*
X107937126Y-103864784D01*
X107824276Y-103866222D01*
X107716676Y-103869285D01*
X107618540Y-103873928D01*
X107534082Y-103880102D01*
X107467519Y-103887763D01*
X107431045Y-103894661D01*
X107401040Y-103902171D01*
X106593222Y-103902171D01*
X106628959Y-103890956D01*
X106744075Y-103857569D01*
X106859975Y-103826614D01*
X106971830Y-103799550D01*
X107073700Y-103778046D01*
X107125625Y-103767845D01*
X107169771Y-103758745D01*
X107198787Y-103752278D01*
X107203875Y-103750957D01*
X107210052Y-103747642D01*
X107214971Y-103739881D01*
X107218774Y-103725054D01*
X107221603Y-103700543D01*
X107223600Y-103663731D01*
X107224906Y-103612000D01*
X107225663Y-103542731D01*
X107226014Y-103453305D01*
X107226099Y-103341106D01*
X107226100Y-103340756D01*
X107226160Y-103228660D01*
X107226393Y-103157695D01*
X107403900Y-103157695D01*
X107403900Y-103722225D01*
X107515025Y-103712037D01*
X107558443Y-103709255D01*
X107622414Y-103706763D01*
X107702091Y-103704669D01*
X107792628Y-103703082D01*
X107889179Y-103702110D01*
X107969050Y-103701850D01*
X108066006Y-103702203D01*
X108160073Y-103703200D01*
X108246599Y-103704739D01*
X108320938Y-103706724D01*
X108378439Y-103709055D01*
X108410375Y-103711213D01*
X108508800Y-103720576D01*
X108508800Y-103157695D01*
X108408658Y-103255147D01*
X108361747Y-103300130D01*
X108324692Y-103331094D01*
X108293295Y-103347482D01*
X108263363Y-103348738D01*
X108230699Y-103334305D01*
X108191108Y-103303626D01*
X108140394Y-103256146D01*
X108097274Y-103213839D01*
X107956350Y-103075079D01*
X107813632Y-103213839D01*
X107753976Y-103270730D01*
X107708840Y-103310958D01*
X107675591Y-103336597D01*
X107651600Y-103349719D01*
X107637549Y-103352600D01*
X107614918Y-103346583D01*
X107584339Y-103327057D01*
X107542776Y-103291805D01*
X107504041Y-103255147D01*
X107403900Y-103157695D01*
X107226393Y-103157695D01*
X107226455Y-103139140D01*
X107227154Y-103069372D01*
X107228427Y-103016534D01*
X107230444Y-102977803D01*
X107233376Y-102950353D01*
X107237391Y-102931363D01*
X107242661Y-102918008D01*
X107249354Y-102907465D01*
X107252421Y-102903462D01*
X107272623Y-102881926D01*
X107293428Y-102871281D01*
X107317779Y-102872833D01*
X107348619Y-102887892D01*
X107388891Y-102917763D01*
X107441537Y-102963755D01*
X107490528Y-103009251D01*
X107638420Y-103148503D01*
X107779560Y-103009251D01*
X107836942Y-102953559D01*
X107880087Y-102914157D01*
X107911995Y-102888682D01*
X107935667Y-102874771D01*
X107954103Y-102870060D01*
X107956349Y-102870000D01*
X107974394Y-102873684D01*
X107974394Y-102873684D01*
G37*
X107974394Y-102873684D02*
X107997347Y-102886307D01*
X108028215Y-102910227D01*
X108070002Y-102947800D01*
X108125716Y-103001382D01*
X108132925Y-103008453D01*
X108273850Y-103146907D01*
X108418910Y-103008453D01*
X108479907Y-102951239D01*
X108526572Y-102910718D01*
X108562180Y-102885276D01*
X108590002Y-102873296D01*
X108613313Y-102873164D01*
X108635385Y-102883263D01*
X108650268Y-102894264D01*
X108680250Y-102918529D01*
X108683924Y-103332298D01*
X108687598Y-103746066D01*
X108715674Y-103752033D01*
X108743257Y-103757567D01*
X108785290Y-103765652D01*
X108819950Y-103772164D01*
X108893803Y-103787543D01*
X108984114Y-103808877D01*
X109083227Y-103834132D01*
X109183485Y-103861277D01*
X109277236Y-103888280D01*
X109356823Y-103913109D01*
X109378750Y-103920505D01*
X109482000Y-103957190D01*
X109562766Y-103988167D01*
X109623077Y-104014380D01*
X109664962Y-104036769D01*
X109690451Y-104056275D01*
X109699986Y-104069485D01*
X109706013Y-104102840D01*
X109704652Y-104156973D01*
X109696631Y-104228595D01*
X109682677Y-104314418D01*
X109663520Y-104411152D01*
X109639887Y-104515506D01*
X109612507Y-104624193D01*
X109582108Y-104733922D01*
X109549417Y-104841404D01*
X109515163Y-104943349D01*
X109493532Y-105002144D01*
X109371192Y-105288930D01*
X109225056Y-105572748D01*
X109056721Y-105851317D01*
X108867781Y-106122360D01*
X108659832Y-106383595D01*
X108434468Y-106632744D01*
X108193286Y-106867528D01*
X108178600Y-106880879D01*
X108108745Y-106943040D01*
X108054088Y-106988921D01*
X108012049Y-107020388D01*
X107980049Y-107039305D01*
X107955509Y-107047534D01*
X107946996Y-107048252D01*
X107927773Y-107040463D01*
X107895382Y-107019630D01*
X107855607Y-106989623D01*
X107839046Y-106976019D01*
X107684827Y-106840926D01*
X107535030Y-106699518D01*
X107397872Y-106559624D01*
X107368165Y-106527600D01*
X107142642Y-106266111D01*
X106939954Y-105998768D01*
X106760496Y-105726298D01*
X106604660Y-105449427D01*
X106472842Y-105168883D01*
X106365435Y-104885391D01*
X106282833Y-104599679D01*
X106254373Y-104473089D01*
X106236880Y-104382254D01*
X106222351Y-104295791D01*
X106211300Y-104217776D01*
X106204875Y-104158157D01*
X106373567Y-104158157D01*
X106381757Y-104222103D01*
X106423187Y-104460624D01*
X106486885Y-104706174D01*
X106571861Y-104955577D01*
X106677124Y-105205657D01*
X106710719Y-105276650D01*
X106815364Y-105480578D01*
X106926386Y-105672660D01*
X107047208Y-105857937D01*
X107181256Y-106041451D01*
X107331954Y-106228242D01*
X107449024Y-106363465D01*
X107493562Y-106412296D01*
X107545381Y-106466955D01*
X107601497Y-106524527D01*
X107658928Y-106582100D01*
X107714691Y-106636760D01*
X107765802Y-106685595D01*
X107809279Y-106725690D01*
X107842139Y-106754133D01*
X107861399Y-106768010D01*
X107864164Y-106768900D01*
X107866347Y-106756666D01*
X107868356Y-106721828D01*
X107870135Y-106667184D01*
X107871626Y-106595528D01*
X107872772Y-106509657D01*
X107873515Y-106412367D01*
X107873798Y-106306454D01*
X107873800Y-106299326D01*
X107873800Y-105831524D01*
X108038900Y-105831524D01*
X108038900Y-106300212D01*
X108039116Y-106406485D01*
X108039733Y-106504315D01*
X108040701Y-106590903D01*
X108041969Y-106663449D01*
X108043490Y-106719157D01*
X108045212Y-106755225D01*
X108047086Y-106768856D01*
X108047200Y-106768900D01*
X108058613Y-106760439D01*
X108084794Y-106737062D01*
X108122513Y-106701772D01*
X108168540Y-106657573D01*
X108200838Y-106626025D01*
X108440790Y-106375105D01*
X108659066Y-106115684D01*
X108855177Y-105848630D01*
X109028634Y-105574810D01*
X109178947Y-105295093D01*
X109305627Y-105010346D01*
X109408185Y-104721438D01*
X109486132Y-104429237D01*
X109512708Y-104298750D01*
X109523030Y-104240892D01*
X109528448Y-104202839D01*
X109529051Y-104179493D01*
X109524925Y-104165753D01*
X109516157Y-104156521D01*
X109515161Y-104155751D01*
X109489303Y-104142110D01*
X109442725Y-104123611D01*
X109379381Y-104101412D01*
X109303229Y-104076675D01*
X109218225Y-104050557D01*
X109128323Y-104024219D01*
X109037481Y-103998819D01*
X108949654Y-103975518D01*
X108868798Y-103955474D01*
X108798870Y-103939848D01*
X108744606Y-103929914D01*
X108686600Y-103921215D01*
X108686411Y-104090932D01*
X108679666Y-104355511D01*
X108660124Y-104601324D01*
X108627917Y-104827775D01*
X108583175Y-105034269D01*
X108526030Y-105220208D01*
X108456613Y-105384997D01*
X108375054Y-105528038D01*
X108368808Y-105537348D01*
X108315823Y-105606559D01*
X108252857Y-105674896D01*
X108186567Y-105735868D01*
X108123611Y-105782983D01*
X108105830Y-105793751D01*
X108038900Y-105831524D01*
X107873800Y-105831524D01*
X107873800Y-105829752D01*
X107832525Y-105808878D01*
X107734043Y-105745685D01*
X107641115Y-105659301D01*
X107555111Y-105551587D01*
X107477403Y-105424407D01*
X107409361Y-105279622D01*
X107374268Y-105186583D01*
X107332901Y-105054389D01*
X107299334Y-104918107D01*
X107272955Y-104773658D01*
X107253152Y-104616966D01*
X107239314Y-104443956D01*
X107230830Y-104250549D01*
X107230136Y-104225511D01*
X107222239Y-103923673D01*
X107176544Y-103931519D01*
X106968836Y-103974062D01*
X106752023Y-104031324D01*
X106535642Y-104100769D01*
X106523608Y-104105011D01*
X106373567Y-104158157D01*
X106204875Y-104158157D01*
X106204242Y-104152289D01*
X106201690Y-104103408D01*
X106204158Y-104075212D01*
X106204191Y-104075109D01*
X106219427Y-104055713D01*
X106249952Y-104032784D01*
X106272927Y-104019690D01*
X106336611Y-103991144D01*
X106420398Y-103959201D01*
X106519457Y-103925320D01*
X106593222Y-103902171D01*
X107401040Y-103902171D01*
X107407305Y-104246510D01*
X107409872Y-104364449D01*
X107413042Y-104461406D01*
X107417107Y-104541802D01*
X107422361Y-104610052D01*
X107429096Y-104670576D01*
X107437605Y-104727790D01*
X107440246Y-104743250D01*
X107479156Y-104933619D01*
X107525581Y-105101443D01*
X107580282Y-105248664D01*
X107644025Y-105377224D01*
X107717571Y-105489064D01*
X107748918Y-105528381D01*
X107783495Y-105564229D01*
X107826324Y-105601196D01*
X107871384Y-105634894D01*
X107912655Y-105660937D01*
X107944117Y-105674936D01*
X107951727Y-105676179D01*
X107972035Y-105669706D01*
X108005979Y-105652179D01*
X108046501Y-105627275D01*
X108049737Y-105625126D01*
X108139588Y-105550499D01*
X108220595Y-105453208D01*
X108292363Y-105334543D01*
X108354498Y-105195794D01*
X108406604Y-105038251D01*
X108448286Y-104863203D01*
X108479149Y-104671941D01*
X108498799Y-104465753D01*
X108506840Y-104245930D01*
X108506424Y-104133650D01*
X108502450Y-103892350D01*
X108432600Y-103883606D01*
X108356724Y-103876218D01*
X108265024Y-103870689D01*
X108161715Y-103866971D01*
X108051011Y-103865019D01*
X107937126Y-103864784D01*
X107824276Y-103866222D01*
X107716676Y-103869285D01*
X107618540Y-103873928D01*
X107534082Y-103880102D01*
X107467519Y-103887763D01*
X107431045Y-103894661D01*
X107401040Y-103902171D01*
X106593222Y-103902171D01*
X106628959Y-103890956D01*
X106744075Y-103857569D01*
X106859975Y-103826614D01*
X106971830Y-103799550D01*
X107073700Y-103778046D01*
X107125625Y-103767845D01*
X107169771Y-103758745D01*
X107198787Y-103752278D01*
X107203875Y-103750957D01*
X107210052Y-103747642D01*
X107214971Y-103739881D01*
X107218774Y-103725054D01*
X107221603Y-103700543D01*
X107223600Y-103663731D01*
X107224906Y-103612000D01*
X107225663Y-103542731D01*
X107226014Y-103453305D01*
X107226099Y-103341106D01*
X107226100Y-103340756D01*
X107226160Y-103228660D01*
X107226393Y-103157695D01*
X107403900Y-103157695D01*
X107403900Y-103722225D01*
X107515025Y-103712037D01*
X107558443Y-103709255D01*
X107622414Y-103706763D01*
X107702091Y-103704669D01*
X107792628Y-103703082D01*
X107889179Y-103702110D01*
X107969050Y-103701850D01*
X108066006Y-103702203D01*
X108160073Y-103703200D01*
X108246599Y-103704739D01*
X108320938Y-103706724D01*
X108378439Y-103709055D01*
X108410375Y-103711213D01*
X108508800Y-103720576D01*
X108508800Y-103157695D01*
X108408658Y-103255147D01*
X108361747Y-103300130D01*
X108324692Y-103331094D01*
X108293295Y-103347482D01*
X108263363Y-103348738D01*
X108230699Y-103334305D01*
X108191108Y-103303626D01*
X108140394Y-103256146D01*
X108097274Y-103213839D01*
X107956350Y-103075079D01*
X107813632Y-103213839D01*
X107753976Y-103270730D01*
X107708840Y-103310958D01*
X107675591Y-103336597D01*
X107651600Y-103349719D01*
X107637549Y-103352600D01*
X107614918Y-103346583D01*
X107584339Y-103327057D01*
X107542776Y-103291805D01*
X107504041Y-103255147D01*
X107403900Y-103157695D01*
X107226393Y-103157695D01*
X107226455Y-103139140D01*
X107227154Y-103069372D01*
X107228427Y-103016534D01*
X107230444Y-102977803D01*
X107233376Y-102950353D01*
X107237391Y-102931363D01*
X107242661Y-102918008D01*
X107249354Y-102907465D01*
X107252421Y-102903462D01*
X107272623Y-102881926D01*
X107293428Y-102871281D01*
X107317779Y-102872833D01*
X107348619Y-102887892D01*
X107388891Y-102917763D01*
X107441537Y-102963755D01*
X107490528Y-103009251D01*
X107638420Y-103148503D01*
X107779560Y-103009251D01*
X107836942Y-102953559D01*
X107880087Y-102914157D01*
X107911995Y-102888682D01*
X107935667Y-102874771D01*
X107954103Y-102870060D01*
X107956349Y-102870000D01*
X107974394Y-102873684D01*
D13*
X104989334Y-52455143D02*
X104941715Y-52502762D01*
X104798858Y-52550381D01*
X104703620Y-52550381D01*
X104560762Y-52502762D01*
X104465524Y-52407524D01*
X104417905Y-52312286D01*
X104370286Y-52121810D01*
X104370286Y-51978952D01*
X104417905Y-51788476D01*
X104465524Y-51693238D01*
X104560762Y-51598000D01*
X104703620Y-51550381D01*
X104798858Y-51550381D01*
X104941715Y-51598000D01*
X104989334Y-51645619D01*
X105370286Y-51645619D02*
X105417905Y-51598000D01*
X105513143Y-51550381D01*
X105751239Y-51550381D01*
X105846477Y-51598000D01*
X105894096Y-51645619D01*
X105941715Y-51740857D01*
X105941715Y-51836095D01*
X105894096Y-51978952D01*
X105322667Y-52550381D01*
X105941715Y-52550381D01*
X108291334Y-86209143D02*
X108243715Y-86256762D01*
X108100858Y-86304381D01*
X108005620Y-86304381D01*
X107862762Y-86256762D01*
X107767524Y-86161524D01*
X107719905Y-86066286D01*
X107672286Y-85875810D01*
X107672286Y-85732952D01*
X107719905Y-85542476D01*
X107767524Y-85447238D01*
X107862762Y-85352000D01*
X108005620Y-85304381D01*
X108100858Y-85304381D01*
X108243715Y-85352000D01*
X108291334Y-85399619D01*
X108624667Y-85304381D02*
X109243715Y-85304381D01*
X108910381Y-85685333D01*
X109053239Y-85685333D01*
X109148477Y-85732952D01*
X109196096Y-85780571D01*
X109243715Y-85875810D01*
X109243715Y-86113905D01*
X109196096Y-86209143D01*
X109148477Y-86256762D01*
X109053239Y-86304381D01*
X108767524Y-86304381D01*
X108672286Y-86256762D01*
X108624667Y-86209143D01*
X108735905Y-51506381D02*
X108735905Y-50506381D01*
X108974000Y-50506381D01*
X109116858Y-50554000D01*
X109212096Y-50649238D01*
X109259715Y-50744476D01*
X109307334Y-50934952D01*
X109307334Y-51077810D01*
X109259715Y-51268286D01*
X109212096Y-51363524D01*
X109116858Y-51458762D01*
X108974000Y-51506381D01*
X108735905Y-51506381D01*
X110259715Y-51506381D02*
X109688286Y-51506381D01*
X109974000Y-51506381D02*
X109974000Y-50506381D01*
X109878762Y-50649238D01*
X109783524Y-50744476D01*
X109688286Y-50792095D01*
X104377905Y-70008381D02*
X104377905Y-69008381D01*
X104616000Y-69008381D01*
X104758858Y-69056000D01*
X104854096Y-69151238D01*
X104901715Y-69246476D01*
X104949334Y-69436952D01*
X104949334Y-69579810D01*
X104901715Y-69770286D01*
X104854096Y-69865524D01*
X104758858Y-69960762D01*
X104616000Y-70008381D01*
X104377905Y-70008381D01*
X105330286Y-69103619D02*
X105377905Y-69056000D01*
X105473143Y-69008381D01*
X105711239Y-69008381D01*
X105806477Y-69056000D01*
X105854096Y-69103619D01*
X105901715Y-69198857D01*
X105901715Y-69294095D01*
X105854096Y-69436952D01*
X105282667Y-70008381D01*
X105901715Y-70008381D01*
X130222667Y-87546381D02*
X130222667Y-88260667D01*
X130175047Y-88403524D01*
X130079809Y-88498762D01*
X129936952Y-88546381D01*
X129841714Y-88546381D01*
X130603619Y-87546381D02*
X131222667Y-87546381D01*
X130889333Y-87927333D01*
X131032191Y-87927333D01*
X131127429Y-87974952D01*
X131175048Y-88022571D01*
X131222667Y-88117810D01*
X131222667Y-88355905D01*
X131175048Y-88451143D01*
X131127429Y-88498762D01*
X131032191Y-88546381D01*
X130746476Y-88546381D01*
X130651238Y-88498762D01*
X130603619Y-88451143D01*
X116580762Y-59761333D02*
X116628381Y-59618476D01*
X116628381Y-59380380D01*
X116580762Y-59285142D01*
X116533143Y-59237523D01*
X116437905Y-59189904D01*
X116342667Y-59189904D01*
X116247429Y-59237523D01*
X116199810Y-59285142D01*
X116152190Y-59380380D01*
X116104571Y-59570857D01*
X116056952Y-59666095D01*
X116009333Y-59713714D01*
X115914095Y-59761333D01*
X115818857Y-59761333D01*
X115723619Y-59713714D01*
X115676000Y-59666095D01*
X115628381Y-59570857D01*
X115628381Y-59332761D01*
X115676000Y-59189904D01*
X115628381Y-58856571D02*
X116628381Y-58618476D01*
X115914095Y-58427999D01*
X116628381Y-58237523D01*
X115628381Y-57999428D01*
X116628381Y-57094666D02*
X116628381Y-57666095D01*
X116628381Y-57380381D02*
X115628381Y-57380381D01*
X115771238Y-57475619D01*
X115866476Y-57570857D01*
X115914095Y-57666095D01*
X124962095Y-75400381D02*
X124962095Y-76209905D01*
X125009714Y-76305143D01*
X125057333Y-76352762D01*
X125152571Y-76400381D01*
X125343048Y-76400381D01*
X125438286Y-76352762D01*
X125485905Y-76305143D01*
X125533524Y-76209905D01*
X125533524Y-75400381D01*
X125914476Y-75400381D02*
X126533524Y-75400381D01*
X126200190Y-75781333D01*
X126343048Y-75781333D01*
X126438286Y-75828952D01*
X126485905Y-75876571D01*
X126533524Y-75971810D01*
X126533524Y-76209905D01*
X126485905Y-76305143D01*
X126438286Y-76352762D01*
X126343048Y-76400381D01*
X126057333Y-76400381D01*
X125962095Y-76352762D01*
X125914476Y-76305143D01*
X106426095Y-74128381D02*
X106426095Y-74937905D01*
X106473714Y-75033143D01*
X106521333Y-75080762D01*
X106616571Y-75128381D01*
X106807048Y-75128381D01*
X106902286Y-75080762D01*
X106949905Y-75033143D01*
X106997524Y-74937905D01*
X106997524Y-74128381D01*
X107426095Y-74223619D02*
X107473714Y-74176000D01*
X107568952Y-74128381D01*
X107807048Y-74128381D01*
X107902286Y-74176000D01*
X107949905Y-74223619D01*
X107997524Y-74318857D01*
X107997524Y-74414095D01*
X107949905Y-74556952D01*
X107378476Y-75128381D01*
X107997524Y-75128381D01*
X115628381Y-65789333D02*
X116342667Y-65789333D01*
X116485524Y-65836953D01*
X116580762Y-65932191D01*
X116628381Y-66075048D01*
X116628381Y-66170286D01*
X115961714Y-64884571D02*
X116628381Y-64884571D01*
X115580762Y-65122667D02*
X116295048Y-65360762D01*
X116295048Y-64741714D01*
X120396095Y-87546381D02*
X120396095Y-88355905D01*
X120443714Y-88451143D01*
X120491333Y-88498762D01*
X120586571Y-88546381D01*
X120777048Y-88546381D01*
X120872286Y-88498762D01*
X120919905Y-88451143D01*
X120967524Y-88355905D01*
X120967524Y-87546381D01*
X121967524Y-88546381D02*
X121396095Y-88546381D01*
X121681809Y-88546381D02*
X121681809Y-87546381D01*
X121586571Y-87689238D01*
X121491333Y-87784476D01*
X121396095Y-87832095D01*
X102536667Y-57110381D02*
X102536667Y-57824667D01*
X102489047Y-57967524D01*
X102393809Y-58062762D01*
X102250952Y-58110381D01*
X102155714Y-58110381D01*
X103489048Y-57110381D02*
X103012857Y-57110381D01*
X102965238Y-57586571D01*
X103012857Y-57538952D01*
X103108095Y-57491333D01*
X103346191Y-57491333D01*
X103441429Y-57538952D01*
X103489048Y-57586571D01*
X103536667Y-57681810D01*
X103536667Y-57919905D01*
X103489048Y-58015143D01*
X103441429Y-58062762D01*
X103346191Y-58110381D01*
X103108095Y-58110381D01*
X103012857Y-58062762D01*
X102965238Y-58015143D01*
X127016667Y-52072381D02*
X127016667Y-52786667D01*
X126969047Y-52929524D01*
X126873809Y-53024762D01*
X126730952Y-53072381D01*
X126635714Y-53072381D01*
X128016667Y-53072381D02*
X127445238Y-53072381D01*
X127730952Y-53072381D02*
X127730952Y-52072381D01*
X127635714Y-52215238D01*
X127540476Y-52310476D01*
X127445238Y-52358095D01*
M02*
